<svg width="48" height="50" viewBox="0 0 48 50" fill="none" xmlns="http://www.w3.org/2000/svg">
<g clip-path="url(#clip0_47_300)">
<path d="M46.3218 30.0259H34.6724C33.1525 30.0305 31.7498 30.8404 30.9913 32.1514C30.2327 33.4623 30.2327 35.0763 30.9913 36.3873C31.7498 37.6983 33.1526 38.5082 34.6724 38.5129H46.3218C46.7662 38.5132 47.1924 38.3372 47.5069 38.0245C47.821 37.7119 47.9975 37.2874 47.9975 36.8451V31.6937C47.9975 31.2514 47.821 30.8269 47.5069 30.5143C47.1923 30.2016 46.7662 30.0259 46.3218 30.0259ZM34.9392 36.3912C34.3739 36.3912 33.8315 36.1676 33.4314 35.7698C33.0318 35.372 32.807 34.8322 32.807 34.2692C32.807 33.7066 33.0318 33.1668 33.4314 32.769C33.8315 32.3712 34.3739 32.1475 34.9392 32.1475C35.5045 32.1475 36.0469 32.3712 36.4466 32.769C36.8467 33.1668 37.071 33.7066 37.071 34.2692C37.071 34.8322 36.8467 35.3721 36.4466 35.7698C36.0469 36.1676 35.5045 36.3912 34.9392 36.3912Z" fill="#FFF"/>
<path d="M28.2765 34.2696C28.2784 32.5817 28.953 30.9639 30.1521 29.7705C31.3511 28.5771 32.9767 27.9058 34.6723 27.9038H45.8658V20.6218C45.8658 20.0654 45.6434 19.5318 45.2484 19.1382C44.853 18.7447 44.3164 18.5237 43.7574 18.5237H43.4316C43.6458 17.6039 43.4763 16.6373 42.9611 15.8449L33.7173 1.62001C33.2107 0.842628 32.4148 0.297081 31.5043 0.10243C30.5941 -0.0918144 29.6435 0.0811484 28.8612 0.583797L5.02692 15.9251C4.12723 16.5047 3.54368 17.4621 3.44215 18.5238H2.13578C1.57668 18.5238 1.04051 18.7447 0.645065 19.1382C0.249649 19.5318 0.0276489 20.0654 0.0276489 20.6218V47.8522C0.0276489 48.409 0.249658 48.9426 0.645065 49.3361C1.04048 49.7296 1.57664 49.9505 2.13578 49.9505H43.7567C44.3158 49.9505 44.8523 49.7296 45.2477 49.3361C45.6427 48.9425 45.8651 48.4089 45.8651 47.8522V40.6352H34.6716C32.976 40.6333 31.3504 39.9619 30.1514 38.7686C28.9523 37.5752 28.2777 35.9574 28.2758 34.2699L28.2765 34.2696ZM5.42855 18.5241C5.51603 18.131 5.75554 17.7882 6.09496 17.5691L29.9292 2.22789C30.2733 2.00694 30.6917 1.93071 31.0922 2.01623C31.4927 2.10175 31.8426 2.34166 32.0653 2.68372L32.8414 3.87787L10.0881 18.5237L5.42855 18.5241ZM35.619 8.15266L41.3092 16.909C41.4643 17.1493 41.5487 17.4275 41.5533 17.7131C41.558 17.9982 41.4826 18.2792 41.3356 18.5245H19.5059L35.619 8.15266Z" fill="#FFF"/>
</g>
</svg>
